<svg width="64" height="64" viewBox="0 0 64 64" fill="none" xmlns="http://www.w3.org/2000/svg">
  <!-- TotalEnergies Logo - Stylized TE with flowing gradient -->
  <defs>
    <linearGradient id="teGradient" x1="0%" y1="0%" x2="100%" y2="100%">
      <stop offset="0%" style="stop-color:#ef4444;stop-opacity:1" />
      <stop offset="20%" style="stop-color:#f97316;stop-opacity:1" />
      <stop offset="40%" style="stop-color:#fbbf24;stop-opacity:1" />
      <stop offset="60%" style="stop-color:#22c55e;stop-opacity:1" />
      <stop offset="80%" style="stop-color:#3b82f6;stop-opacity:1" />
      <stop offset="100%" style="stop-color:#8b5cf6;stop-opacity:1" />
    </linearGradient>
    <linearGradient id="textGradient" x1="0%" y1="0%" x2="100%" y2="0%">
      <stop offset="0%" style="stop-color:#ef4444;stop-opacity:1" />
      <stop offset="100%" style="stop-color:#3b82f6;stop-opacity:1" />
    </linearGradient>
  </defs>
  
  <!-- Background with subtle gradient -->
  <rect width="64" height="64" rx="12" fill="#f8fafc"/>
  
  <!-- Main logo circle with gradient -->
  <circle cx="32" cy="32" r="28" fill="url(#teGradient)" stroke="#ffffff" stroke-width="1"/>
  
  <!-- Stylized T -->
  <path d="M20 18 L44 18 L44 24 L32 24 L32 40 L28 40 L28 24 L16 24 L16 18 Z" fill="white" stroke="white" stroke-width="0.5"/>
  
  <!-- Stylized E -->
  <path d="M16 18 L44 18 L44 24 L28 24 L28 30 L40 30 L40 34 L28 34 L28 40 L44 40 L44 46 L16 46 Z" fill="white" stroke="white" stroke-width="0.5"/>
  
  <!-- Accent dots -->
  <circle cx="20" cy="48" r="2" fill="url(#teGradient)"/>
  <circle cx="44" cy="48" r="2" fill="url(#teGradient)"/>
</svg>